osim_states
version=1
nRows=4
nColumns=185
inDegrees=yes

# SIMM Motion File Header:
name osim_states
datacolumns 185
datarows 4
otherdata 1
range 0.00000000 0.00000568
endheader
time	platform_rx	platform_ry	platform_rz	platform_ty	pelvis_tilt	pelvis_list	pelvis_rotation	pelvis_tx	pelvis_ty	pelvis_tz	hip_flexion_r	hip_adduction_r	hip_rotation_r	knee_angle_r	patella_r_constrained_knee_angle	ankle_angle_r	subtalar_angle_r	mtp_angle_r	hip_flexion_l	hip_adduction_l	hip_rotation_l	knee_angle_l	patella_l_constrained_knee_angle	ankle_angle_l	subtalar_angle_l	mtp_angle_l	lumbar_extension	lumbar_bending	lumbar_rotation	arm_flex_r	arm_add_r	arm_rot_r	elbow_flex_r	pro_sup_r	wrist_flex_r	wrist_dev_r	arm_flex_l	arm_add_l	arm_rot_l	elbow_flex_l	pro_sup_l	wrist_flex_l	wrist_dev_l	platform_rx_u	platform_ry_u	platform_rz_u	platform_ty_u	pelvis_tilt_u	pelvis_list_u	pelvis_rotation_u	pelvis_tx_u	pelvis_ty_u	pelvis_tz_u	hip_flexion_r_u	hip_adduction_r_u	hip_rotation_r_u	knee_angle_r_u	patella_r_constrained_knee_angle_u	ankle_angle_r_u	subtalar_angle_r_u	mtp_angle_r_u	hip_flexion_l_u	hip_adduction_l_u	hip_rotation_l_u	knee_angle_l_u	patella_l_constrained_knee_angle_u	ankle_angle_l_u	subtalar_angle_l_u	mtp_angle_l_u	lumbar_extension_u	lumbar_bending_u	lumbar_rotation_u	arm_flex_r_u	arm_add_r_u	arm_rot_r_u	elbow_flex_r_u	pro_sup_r_u	wrist_flex_r_u	wrist_dev_r_u	arm_flex_l_u	arm_add_l_u	arm_rot_l_u	elbow_flex_l_u	pro_sup_l_u	wrist_flex_l_u	wrist_dev_l_u	glut_med1_r.activation	glut_med1_r.fiber_length	glut_med2_r.activation	glut_med2_r.fiber_length	glut_med3_r.activation	glut_med3_r.fiber_length	glut_min1_r.activation	glut_min1_r.fiber_length	glut_min2_r.activation	glut_min2_r.fiber_length	glut_min3_r.activation	glut_min3_r.fiber_length	semimem_r.activation	semimem_r.fiber_length	semiten_r.activation	semiten_r.fiber_length	bifemlh_r.activation	bifemlh_r.fiber_length	bifemsh_r.activation	bifemsh_r.fiber_length	sar_r.activation	sar_r.fiber_length	add_long_r.activation	add_long_r.fiber_length	add_brev_r.activation	add_brev_r.fiber_length	add_mag1_r.activation	add_mag1_r.fiber_length	add_mag2_r.activation	add_mag2_r.fiber_length	add_mag3_r.activation	add_mag3_r.fiber_length	tfl_r.activation	tfl_r.fiber_length	pect_r.activation	pect_r.fiber_length	grac_r.activation	grac_r.fiber_length	glut_max1_r.activation	glut_max1_r.fiber_length	glut_max2_r.activation	glut_max2_r.fiber_length	glut_max3_r.activation	glut_max3_r.fiber_length	iliacus_r.activation	iliacus_r.fiber_length	psoas_r.activation	psoas_r.fiber_length	quad_fem_r.activation	quad_fem_r.fiber_length	gem_r.activation	gem_r.fiber_length	peri_r.activation	peri_r.fiber_length	rect_fem_r.activation	rect_fem_r.fiber_length	vas_med_r.activation	vas_med_r.fiber_length	vas_int_r.activation	vas_int_r.fiber_length	vas_lat_r.activation	vas_lat_r.fiber_length	med_gas_r.activation	med_gas_r.fiber_length	lat_gas_r.activation	lat_gas_r.fiber_length	soleus_r.activation	soleus_r.fiber_length	tib_post_r.activation	tib_post_r.fiber_length	flex_dig_r.activation	flex_dig_r.fiber_length	flex_hal_r.activation	flex_hal_r.fiber_length	tib_ant_r.activation	tib_ant_r.fiber_length	per_brev_r.activation	per_brev_r.fiber_length	per_long_r.activation	per_long_r.fiber_length	per_tert_r.activation	per_tert_r.fiber_length	ext_dig_r.activation	ext_dig_r.fiber_length	ext_hal_r.activation	ext_hal_r.fiber_length	ercspn_r.activation	ercspn_r.fiber_length	ercspn_l.activation	ercspn_l.fiber_length	intobl_r.activation	intobl_r.fiber_length	intobl_l.activation	intobl_l.fiber_length	extobl_r.activation	extobl_r.fiber_length	extobl_l.activation	extobl_l.fiber_length
      0.00000000	     30.00000000	      0.00000000	      0.00000000	      0.00000000	    -13.76976807	      8.23344993	     17.64472575	     -0.43899204	      1.08181190	      0.32839821	     30.13083287	    -13.19113627	    -12.24450686	    -16.37451900	    -16.37451900	    -34.00000025	     -5.71999982	      0.00001318	     52.13915936	      0.00000000	     -9.99811353	   -101.98648811	   -101.98648811	      6.49999992	      0.00000000	      0.00000000	    -10.51540446	     -9.04945642	    -12.75349334	      0.00000000	     -8.91003344	      0.00000000	     72.06682857	     46.23690339	      0.00000000	      4.87402477	      0.00000000	     -8.91003344	      0.00000000	     72.06682857	     46.23690339	      0.00000000	      4.87402477	      0.00000000	      0.00000000	      0.00000000	      0.00000000	    -13.60739698	    -50.08455104	      9.63191901	      0.43014102	     -2.42569372	      0.33289553	     96.40999187	     96.46242840	    194.85428358	   -313.00054209	   -313.00054209	    784.69035079	      0.00000000	      0.00000000	      0.00000000	      0.00000000	      0.00000000	      0.00000000	     -0.00000000	      0.00000000	      0.00000000	      0.00000000	    -17.46928321	     51.92054559	    -12.41204029	      0.00000000	      0.00000000	      0.00000000	      0.00000000	      0.00000000	      0.00000000	      0.00000000	      0.00000000	      0.00000000	      0.00000000	      0.00000000	      0.00000000	      0.00000000	      0.00000000	      0.05000000	      0.05146881	      0.05000000	      0.08474069	      0.05000000	      0.06392913	      0.05000000	      0.07143465	      0.05000000	      0.05893416	      0.05000000	      0.03540694	      0.05000000	      0.08420843	      0.05000000	      0.25365298	      0.05000000	      0.12652635	      0.05000000	      0.17908795	      0.05000000	      0.46221487	      0.05000000	      0.11642218	      0.05000000	      0.13549087	      0.05000000	      0.08060293	      0.05000000	      0.10829232	      0.05000000	      0.13561090	      0.05000000	      0.08830718	      0.05000000	      0.07234435	      0.05000000	      0.35964475	      0.05000000	      0.09304978	      0.05000000	      0.10635340	      0.05000000	      0.13552944	      0.05000000	      0.09154208	      0.05000000	      0.08427423	      0.05000000	      0.04648665	      0.05000000	      0.01768389	      0.05000000	      0.01634447	      0.05000000	      0.09580238	      0.05000000	      0.06707593	      0.05000000	      0.06883964	      0.05000000	      0.06254149	      0.05000000	      0.03217290	      0.05000000	      0.03357651	      0.05000000	      0.02658441	      0.55932000	      0.02372202	      0.55932000	      0.01944909	      0.55932000	      0.02453155	      0.05000000	      0.11238627	      0.60000000	      0.04215721	      0.60000000	      0.03588184	      0.60000000	      0.09763754	      0.60000000	      0.12082348	      0.55932000	      0.13240822	      0.05000000	      0.13584631	      0.05000000	      0.11958468	      0.05000000	      0.09793946	      0.05000000	      0.08306022	      0.05000000	      0.13910726	      0.05000000	      0.10406522
      0.00000171	     30.00000000	      0.00000000	      0.00000000	     -0.00000000	    -13.76979133	      8.23336434	     17.64474214	     -0.43899131	      1.08180775	      0.32839878	     30.13099793	    -13.19097147	    -12.24417316	    -16.37505559	    -16.37505559	    -33.99863863	     -5.71998110	      0.00001318	     52.13915936	     -0.00000000	     -9.99811353	   -101.98648811	   -101.98648811	      6.49999992	      0.00000000	      0.00000000	    -10.51543432	     -9.04936770	    -12.75351449	      0.00000000	     -8.91003344	      0.00000000	     72.06682857	     46.23690339	     -0.00000000	      4.87402477	     -0.00000000	     -8.91003344	     -0.00000000	     72.06682857	     46.23690339	     -0.00000000	      4.87402477	      0.00000000	      0.00000000	      0.00000000	     -0.00000000	    -13.61468423	    -50.07939148	      9.54982580	      0.42998910	     -2.42556938	      0.33295089	     96.77319653	     96.41295792	    195.67942292	   -315.02467797	   -315.02467797	    808.39980895	     21.40171167	      0.00000000	     -0.00000000	      0.00000000	     -0.00000000	     -0.00000000	     -0.00000000	     -0.00000000	      0.00000000	      0.00000000	    -17.47349731	     51.91364803	    -12.33440063	      0.00000000	     -0.00000000	      0.00000000	      0.00000000	     -0.00000000	     -0.00000000	      0.00000000	     -0.00000000	      0.00000000	     -0.00000000	      0.00000000	     -0.00000000	     -0.00000000	      0.00000000	      0.04999902	      0.05146869	      0.05000091	      0.08474077	      0.05003913	      0.06392933	      0.04999902	      0.07143452	      0.04999902	      0.05893411	      0.05001176	      0.03540700	      0.05007215	      0.08420818	      0.05014514	      0.25365268	      0.05010996	      0.12652619	      0.05006897	      0.17908769	      0.04999902	      0.46221477	      0.04999902	      0.11642189	      0.04999902	      0.13549071	      0.04999902	      0.08060286	      0.04999902	      0.10829226	      0.04999908	      0.13561093	      0.04999902	      0.08830715	      0.04999902	      0.07234421	      0.04999902	      0.35964436	      0.05000418	      0.09304994	      0.05000803	      0.10635360	      0.05000655	      0.13552963	      0.04999902	      0.09154190	      0.04999902	      0.08427405	      0.05006339	      0.04648691	      0.05014093	      0.01768412	      0.05011626	      0.01634467	      0.05002412	      0.09580281	      0.05001742	      0.06707641	      0.05001846	      0.06884013	      0.05002014	      0.06254199	      0.04999902	      0.03217355	      0.04999902	      0.03357732	      0.04999902	      0.02658497	      0.55932000	      0.02372230	      0.55932000	      0.01944936	      0.55932000	      0.02453193	      0.05007277	      0.11238553	      0.60000000	      0.04215736	      0.60000000	      0.03588206	      0.60000000	      0.09763700	      0.60000000	      0.12082271	      0.55932000	      0.13240742	      0.05002703	      0.13584629	      0.04999970	      0.11958476	      0.04999902	      0.09793927	      0.05000744	      0.08306036	      0.05003936	      0.13910717	      0.04999923	      0.10406526
      0.00000370	     30.00000000	     -0.00000000	      0.00000000	     -0.00000000	    -13.76981839	      8.23326483	     17.64476102	     -0.43899045	      1.08180294	      0.32839944	     30.13119067	    -13.19077995	    -12.24378347	    -16.37568402	    -16.37568402	    -33.99700802	     -5.71991718	      0.00001318	     52.13915936	     -0.00000000	     -9.99811353	   -101.98648811	   -101.98648811	      6.49999992	      0.00000000	      0.00000000	    -10.51546904	     -9.04926455	    -12.75353890	     -0.00000000	     -8.91003344	      0.00000000	     72.06682857	     46.23690339	     -0.00000000	      4.87402477	     -0.00000000	     -8.91003344	     -0.00000000	     72.06682857	     46.23690339	     -0.00000000	      4.87402477	      0.00000000	     -0.00000000	      0.00000000	     -0.00000000	    -13.62368137	    -50.07333781	      9.44746180	      0.42979873	     -2.42541014	      0.33302021	     97.22218450	     96.35087091	    196.50662787	   -317.48861938	   -317.48861938	    832.05916293	     42.12996937	      0.00000000	     -0.00000000	     -0.00000000	     -0.00000000	      0.00000000	     -0.00000000	      0.00000000	      0.00000000	      0.00000000	    -17.47893594	     51.90552217	    -12.23768615	     -0.00000000	      0.00000000	      0.00000000	      0.00000000	      0.00000000	     -0.00000000	      0.00000000	     -0.00000000	     -0.00000000	     -0.00000000	      0.00000000	     -0.00000000	     -0.00000000	      0.00000000	      0.04999787	      0.05146855	      0.05000196	      0.08474086	      0.05008363	      0.06392957	      0.04999787	      0.07143437	      0.04999787	      0.05893406	      0.05002533	      0.03540707	      0.05015601	      0.08420788	      0.05031379	      0.25365232	      0.05023775	      0.12652600	      0.05014912	      0.17908738	      0.04999787	      0.46221466	      0.04999787	      0.11642156	      0.04999787	      0.13549053	      0.04999787	      0.08060279	      0.04999787	      0.10829219	      0.04999801	      0.13561096	      0.04999787	      0.08830711	      0.04999787	      0.07234404	      0.04999787	      0.35964392	      0.05000902	      0.09305013	      0.05001731	      0.10635384	      0.05001412	      0.13552985	      0.04999787	      0.09154168	      0.04999787	      0.08427385	      0.05013508	      0.04648720	      0.05029994	      0.01768437	      0.05024747	      0.01634490	      0.05005190	      0.09580330	      0.05003746	      0.06707697	      0.05003969	      0.06884069	      0.05004329	      0.06254256	      0.04999787	      0.03217431	      0.04999787	      0.03357827	      0.04999787	      0.02658561	      0.55932000	      0.02372263	      0.55932000	      0.01944968	      0.55932000	      0.02453237	      0.05015735	      0.11238467	      0.60000000	      0.04215752	      0.60000000	      0.03588232	      0.60000000	      0.09763637	      0.60000000	      0.12082181	      0.55932000	      0.13240648	      0.05005844	      0.13584627	      0.04999936	      0.11958487	      0.04999787	      0.09793906	      0.05001605	      0.08306053	      0.05008512	      0.13910706	      0.04999834	      0.10406531
      0.00000568	     30.00000000	      0.00000000	      0.00000000	     -0.00000000	    -13.76984547	      8.23316534	     17.64477969	     -0.43898960	      1.08179812	      0.32840010	     30.13138433	    -13.19058855	    -12.24339231	    -16.37631743	    -16.37631743	    -33.99533455	     -5.71981705	      0.00001318	     52.13915936	     -0.00000000	     -9.99811353	   -101.98648811	   -101.98648811	      6.49999992	      0.00000000	      0.00000000	    -10.51550378	     -9.04916141	    -12.75356312	     -0.00000000	     -8.91003344	      0.00000000	     72.06682857	     46.23690339	     -0.00000000	      4.87402477	     -0.00000000	     -8.91003344	     -0.00000000	     72.06682857	     46.23690339	     -0.00000000	      4.87402477	      0.00000000	      0.00000000	      0.00000000	     -0.00000000	    -13.63305185	    -50.06725323	      9.34018639	      0.42959850	     -2.42524040	      0.33309426	     97.69053468	     96.28626308	    197.16278156	   -320.02746781	   -320.02746781	    851.60665958	     57.78358325	      0.00000000	     -0.00000000	      0.00000000	     -0.00000000	      0.00000000	     -0.00000000	     -0.00000000	     -0.00000000	      0.00000000	    -17.48481056	     51.89720374	    -12.13638092	     -0.00000000	      0.00000000	      0.00000000	     -0.00000000	      0.00000000	     -0.00000000	     -0.00000000	     -0.00000000	     -0.00000000	     -0.00000000	      0.00000000	     -0.00000000	     -0.00000000	      0.00000000	      0.04999673	      0.05146840	      0.05000301	      0.08474095	      0.05012714	      0.06392981	      0.04999673	      0.07143422	      0.04999673	      0.05893400	      0.05003881	      0.03540714	      0.05023982	      0.08420758	      0.05048230	      0.25365197	      0.05036545	      0.12652582	      0.05022923	      0.17908706	      0.04999673	      0.46221454	      0.04999673	      0.11642122	      0.04999673	      0.13549035	      0.04999673	      0.08060271	      0.04999673	      0.10829212	      0.04999694	      0.13561100	      0.04999673	      0.08830707	      0.04999673	      0.07234388	      0.04999673	      0.35964347	      0.05001383	      0.09305032	      0.05002654	      0.10635408	      0.05002166	      0.13553007	      0.04999673	      0.09154147	      0.04999673	      0.08427365	      0.05020476	      0.04648748	      0.05045396	      0.01768463	      0.05037457	      0.01634512	      0.05007938	      0.09580378	      0.05005727	      0.06707753	      0.05006067	      0.06884125	      0.05006618	      0.06254313	      0.04999673	      0.03217507	      0.04999673	      0.03357921	      0.04999673	      0.02658626	      0.55932000	      0.02372296	      0.55932000	      0.01945000	      0.55932000	      0.02453281	      0.05024188	      0.11238381	      0.60000000	      0.04215769	      0.60000000	      0.03588259	      0.60000000	      0.09763573	      0.60000000	      0.12082092	      0.55932000	      0.13240555	      0.05008985	      0.13584625	      0.04999901	      0.11958497	      0.04999673	      0.09793884	      0.05002461	      0.08306070	      0.05013085	      0.13910695	      0.04999745	      0.10406536
